<?xml version="1.0" standalone="no"?>
<!DOCTYPE svg PUBLIC "-//W3C//DTD SVG 20010904//EN"
 "http://www.w3.org/TR/2001/REC-SVG-20010904/DTD/svg10.dtd">
<svg stroke='#880000' version="1.0" xmlns="http://www.w3.org/2000/svg"
 width="288.000000pt" height="288.000000pt" viewBox="0 0 288.000000 288.000000"
 preserveAspectRatio="xMidYMid meet">
<metadata>
Created by potrace 1.16, written by Peter Selinger 2001-2019
</metadata>
<g transform="translate(0.000000,288.000000) scale(0.100000,-0.100000)"
fill="#880000" stroke="none">
<path fill='#880000' d="M1517 1861 c-46 -10 -56 -19 -37 -32 12 -9 11 -9 -5 -4 -11 4 -51 13
-90 22 -160 34 -212 -13 -170 -153 15 -52 76 -155 124 -210 14 -16 3 -7 -26
22 -62 64 -114 165 -121 236 l-5 51 -111 -6 c-196 -11 -334 -46 -488 -123 -37
-19 -73 -34 -79 -34 -20 0 -250 -149 -351 -228 -122 -95 -128 -120 -20 -80 38
14 203 38 257 38 164 -1 331 -67 428 -169 32 -34 63 -61 68 -61 7 0 9 38 7
100 l-3 100 108 0 107 0 21 -32 c11 -18 34 -63 52 -100 17 -38 36 -68 42 -68
11 0 34 36 82 133 l34 67 114 0 115 0 0 -195 c0 -108 4 -195 9 -195 5 0 19 12
32 26 55 60 77 78 129 102 48 23 73 27 197 31 78 4 145 9 149 14 4 4 2 24 -5
44 -21 56 -43 48 408 142 245 51 275 65 319 149 41 82 42 116 2 137 -16 8 -33
14 -37 13 -4 -1 -24 6 -43 15 -175 82 -576 191 -855 233 -123 18 -307 26 -358
15z m-147 -137 c70 -28 148 -78 127 -82 -20 -4 -22 -13 -4 -31 10 -10 7 -10
-16 -2 -16 6 -30 11 -33 11 -12 0 -1 -24 21 -48 20 -21 22 -28 10 -30 -19 -4
-19 -11 3 -35 17 -19 17 -20 -15 -3 -43 21 -149 149 -157 188 -9 46 -7 61 7
55 6 -3 32 -13 57 -23z"/>
<path fill='#880000' d="M1110 930 l0 -160 120 0 120 0 0 160 c0 89 -4 160 -9 160 -5 0 -23
-24 -40 -52 -16 -29 -39 -64 -51 -78 l-20 -25 -20 25 c-10 14 -25 36 -32 50
-21 42 -49 80 -59 80 -5 0 -9 -68 -9 -160z"/>
</g>
</svg>
